# xmcd
#
# Track frame offsets:
#	150
#	13595
#	30392
#	44964
#	66734
#	75894
#	89161
#	102460
#	110440
#	123009
#	135074
#	149060
#	159774
#	180945
#
# Disc length: 2614 seconds
#
# Revision: 0
# Processed by: cddbd v1.5.2PL0 Copyright (c) Steve Scherf et al.
# Submitted via: EasyCDDAExtractor 10.0.6.1
#
DISCID=b40a340e
DTITLE=Instrumentos del Rey - Dios de Amor
DYEAR=1900
DGENRE=
TTITLE0=DIOS DE AMOR
TTITLE1=¡OH! ALMA MIA
TTITLE2=UN GRANO DE ARENA
TTITLE3=CUAN GRANDE ES EL
TTITLE4=RENUEVAME
TTITLE5=REVELACION
TTITLE6=NO QUIERO RECORDAR
TTITLE7=CORDERO
TTITLE8=DIOS DE LA MONTAÑA
TTITLE9=DESDE QUE VINE A TI
TTITLE10=¿MARIA SABES TU?
TTITLE11=SI YO SE
TTITLE12=QUIERO SER COMO TU
TTITLE13=EL CURO MIS HERIDAS
EXTD=
EXTT0=
EXTT1=
EXTT2=
EXTT3=
EXTT4=
EXTT5=
EXTT6=
EXTT7=
EXTT8=
EXTT9=
EXTT10=
EXTT11=
EXTT12=
EXTT13=
PLAYORDER=
